<svg xmlns="http://www.w3.org/2000/svg" width="1600" height="900" viewBox="0 0 1600 900" preserveAspectRatio="xMidYMid slice">
  <defs>
    <linearGradient id="bg" x1="0" y1="0" x2="1" y2="1">
      <stop offset="0" stop-color="#0d4f8c"/>
      <stop offset="1" stop-color="#56b6f3"/>
    </linearGradient>
    <linearGradient id="helix" x1="0" y1="0" x2="1" y2="0">
      <stop offset="0" stop-color="#e7f7ff" stop-opacity="0.9"/>
      <stop offset="1" stop-color="#9edaff" stop-opacity="0.8"/>
    </linearGradient>
  </defs>
  <rect width="1600" height="900" fill="url(#bg)"/>
  <g fill="none" stroke="url(#helix)" stroke-width="12" stroke-linecap="round" opacity="0.85">
    <path d="M-100 120 C 150 260, 420 40, 700 180 S 1250 360, 1700 160"/>
    <path d="M-100 240 C 150 380, 420 160, 700 300 S 1250 480, 1700 280"/>
    <path d="M-100 360 C 150 500, 420 280, 700 420 S 1250 600, 1700 400"/>
    <path d="M-100 480 C 150 620, 420 400, 700 540 S 1250 720, 1700 520"/>
    <path d="M-100 600 C 150 740, 420 520, 700 660 S 1250 840, 1700 640"/>
  </g>
  <g stroke="#ffffff" stroke-opacity="0.55" stroke-width="3">
    <line x1="180" y1="210" x2="260" y2="170"/>
    <line x1="320" y1="310" x2="400" y2="270"/>
    <line x1="460" y1="410" x2="540" y2="370"/>
    <line x1="600" y1="510" x2="680" y2="470"/>
    <line x1="740" y1="610" x2="820" y2="570"/>
    <line x1="880" y1="360" x2="960" y2="320"/>
    <line x1="1020" y1="460" x2="1100" y2="420"/>
    <line x1="1160" y1="560" x2="1240" y2="520"/>
  </g>
  <g fill="#ffffff" opacity="0.35">
    <circle cx="140" cy="120" r="6"/>
    <circle cx="300" cy="90" r="5"/>
    <circle cx="520" cy="140" r="4"/>
    <circle cx="900" cy="120" r="5"/>
    <circle cx="1180" cy="200" r="4"/>
    <circle cx="1420" cy="160" r="6"/>
    <circle cx="240" cy="720" r="6"/>
    <circle cx="520" cy="780" r="4"/>
    <circle cx="980" cy="760" r="5"/>
    <circle cx="1320" cy="720" r="4"/>
  </g>
</svg>
